PathFileType	4	(X/Y/Z)	OpenSim_Sub07_CSStiffKnee_Accel.trc
DataRate	CameraRate	NumFrames	NumMarkers	Units	OrigDataRate	OrigDataStartFrame	OrigNumFrames
100	100	17	8	m	100	5051	6734
Frame#	Time	torso_imu_offset_imu	pelvis_imu_offset_imu	tibia_r_imu_offset_imu	femur_r_imu_offset_imu	tibia_l_imu_offset_imu	femur_l_imu_offset_imu	toes_r_imu_offset_imu	toes_l_imu_offset_imu
				X1	Y1	Z1	X2	Y2	Z2	X3	Y3	Z3	X4	Y4	Z4	X5	Y5	Z5	X6	Y6	Z6	X7	Y7	Z7	X8		Y8	Z8	

5051	50.50000000	-9.21564560	-0.19288042	6.09980083	9.92951099	-0.21182685	3.83025655	11.18889550	2.38354343	-2.40416338	10.87659401	1.34337325	2.78608462	10.64909099	-2.59615913	-1.11809190	9.36852533	0.66905696	-3.83407832	11.12852531	-8.71444675	10.89097798	5.44019611	1.90906439	10.64095476
5052	50.51000000	-9.16558940	-0.11695708	6.12455674	9.91046282	-0.24483202	3.71527207	10.45818049	4.51177483	-2.65155606	11.14493033	2.32203929	2.71441043	9.66490069	-1.50052822	0.97966922	9.44369501	2.04888915	-2.89532369	9.31107226	-4.85095137	10.22696129	5.25225413	1.83155814	11.55591911
5053	50.52000000	-9.21142256	0.01015969	6.11078339	9.81003079	-0.29615418	3.52866479	9.39806483	5.53909530	-2.07572181	11.66912095	2.41918598	2.58087642	9.30644179	-0.45662014	1.17741315	10.01001395	3.13392219	-1.91927520	7.79705031	-4.52631148	9.49972783	4.67761061	1.39807175	11.20417522
5054	50.53000000	-9.22848906	0.00501196	6.07505152	9.80097956	-0.23618788	3.44205397	8.12374424	6.52216429	-1.70406882	12.24033289	1.73802422	2.46188439	9.93612563	0.10058484	1.25368423	10.14674577	3.39878195	-1.39596399	4.52502815	-6.73978781	7.17639797	5.32188873	0.96259061	11.08657593
5055	50.54000000	-9.25180786	-0.01767703	6.12666087	9.97474575	-0.30119534	3.35113858	7.73294417	7.13312999	-3.16541557	12.42317109	0.49970921	2.48684858	10.28118975	-1.48168651	0.62562830	9.78594356	3.18033303	-1.22076587	2.35734311	-2.64957255	9.04691678	5.13110512	0.87172976	11.00895157
5056	50.55000000	-9.32561502	-0.07202501	6.26385114	10.13827056	-0.39610243	3.33229982	7.50334995	7.82613249	-4.47963551	11.67766186	-1.00005850	2.37667990	10.27330777	-2.41677355	0.21269017	9.28145894	2.69366491	-1.29670507	13.15086845	9.50125113	17.70891721	5.41063290	1.14693191	11.21043289
5057	50.56000000	-9.43482450	-0.11231018	6.33599440	10.14466660	-0.47573394	3.38449822	7.11777899	9.05593484	-4.07951885	10.91269016	-2.48954561	1.91829650	10.16232379	-2.31514308	0.04382175	9.16391646	2.30652895	-1.79145551	21.04021477	11.38736417	20.97063603	5.18407991	1.51860331	11.01405150
5058	50.57000000	-9.49109704	-0.03644962	6.41052076	10.19916979	-0.47087518	3.46805419	5.65210722	9.95254076	-3.58215020	10.86485603	-3.34312414	1.74214585	9.84256960	-2.81354073	-0.29591062	9.43690307	1.93447512	-2.35459193	8.70012489	7.57587323	19.13044162	5.53806446	1.73451355	10.93168069
5059	50.58000000	-9.60981530	0.03321786	6.47769771	10.16348897	-0.41162555	3.56019977	4.31732650	10.53554144	-3.01141949	10.95677648	-3.75392594	2.06486289	10.02134657	-2.71989204	-0.70783129	9.95345587	1.11870623	-2.56953112	3.44329748	1.15967812	13.91400440	5.54489188	1.53131737	10.86610606
5060	50.59000000	-9.53895982	0.20570780	6.46495141	9.92962246	-0.31021466	3.62564937	3.86468050	10.47275799	-2.36112269	11.06766062	-3.82267378	2.57004073	10.35413910	-2.78506785	-0.41164630	9.98936991	0.55990461	-2.70689214	-0.37475291	-2.95223926	10.53602693	5.85474264	1.58617991	10.87037190
5061	50.60000000	-9.37437450	0.35641576	6.46028714	9.81172573	-0.20951916	3.71023744	3.48979565	9.07664312	-1.34199296	10.97833696	-3.66473978	2.77017678	10.02897198	-2.79558446	0.03304062	9.37844917	0.60353870	-2.96287994	-0.35930285	-4.08260632	8.84846156	5.23085694	1.68381119	10.97441751
5062	50.61000000	-9.20389008	0.50057551	6.52683951	9.67796239	-0.11998005	3.69302699	3.28499858	7.29589559	-0.66026523	10.82048561	-3.52885579	2.49240746	9.74537938	-2.07599509	0.35301275	9.28846937	0.93174023	-3.02548074	0.99955209	-3.45993052	8.48522656	5.51982644	1.61738776	10.81145426
5063	50.62000000	-8.99787034	0.56387472	6.45071167	9.51831267	0.00607769	3.64561113	3.37254898	5.96412605	-0.74308745	10.74070659	-3.34567856	2.23459914	9.78786423	-1.58830683	0.31823928	9.33125494	1.50605367	-2.89497004	1.94825604	-2.34517412	8.36444784	5.73269506	1.52720187	10.66315218
5064	50.63000000	-8.73373970	0.58533957	6.45130578	9.31395753	0.11748578	3.53727341	3.58549812	4.84895240	-0.62717496	10.61726342	-3.12575310	2.49010994	9.91035543	-1.63160556	0.15988908	9.48803430	1.67995688	-2.68867377	2.05547535	-1.96506916	8.08736294	5.70246105	1.60453491	10.61216086
5065	50.64000000	-8.55247942	0.51558576	6.37637373	9.16233045	0.16931906	3.40755207	3.66101106	3.60075540	-0.39616356	10.23426053	-2.97163977	2.88266596	9.72156549	-1.73881977	0.20169665	9.24969809	2.04441123	-2.31511555	1.75774310	-2.12505809	7.64981964	5.08726978	1.67513819	10.91915883
5066	50.65000000	-8.42183865	0.39567509	6.26851446	9.02016587	0.13979491	3.27252058	3.96085856	2.47378000	-0.39863252	9.66593783	-2.95646532	3.12512444	9.38866023	-1.95742792	0.00862278	9.06209384	2.38944790	-2.05985980	1.56810558	-2.28217749	7.30919121	5.61016708	1.90625352	10.73630742
5067	50.66000000	-8.35394254	0.28900419	6.24062470	8.93724536	0.07757405	3.18582555	4.57628701	1.89725715	-0.57466625	9.07933503	-3.03581493	3.01504412	9.21182984	-2.09248271	-0.29833307	8.82474047	2.27338865	-1.98851536	1.60786358	-1.84320631	7.26540349	5.76835697	1.93911809	10.53778692
